<svg width="20" height="23" viewBox="0 0 20 23" fill="none" xmlns="http://www.w3.org/2000/svg">
<path d="M14.7758 0.0115025C14.7248 -0.0431225 12.8873 0.033065 11.2883 1.69625C9.68932 3.358 9.93532 5.26413 9.97132 5.313C10.0073 5.36188 12.2513 5.43806 13.6838 3.50463C15.1163 1.57119 14.8268 0.067565 14.7758 0.0115025ZM19.7468 16.8777C19.6748 16.7397 16.2593 15.1038 16.5773 11.9586C16.8953 8.81188 19.0898 7.94938 19.1243 7.85594C19.1588 7.7625 18.2288 6.72032 17.2433 6.19275C16.5197 5.8208 15.7189 5.6077 14.8988 5.56888C14.7368 5.56456 14.1743 5.43231 13.0178 5.73563C12.2558 5.93544 10.5383 6.58232 10.0658 6.60819C9.59182 6.63407 8.18182 5.85781 6.66532 5.65225C5.69482 5.47256 4.66582 5.84057 3.92932 6.12375C3.19432 6.4055 1.79632 7.20763 0.818318 9.33944C-0.159682 11.4698 0.351818 14.8451 0.717818 15.8944C1.08382 16.9424 1.65532 18.6602 2.62732 19.9137C3.49132 21.3282 4.63732 22.31 5.11582 22.6435C5.59432 22.977 6.94432 23.1984 7.88032 22.7398C8.63332 22.2971 9.99232 22.0426 10.5293 22.0613C11.0648 22.08 12.1208 22.2827 13.2023 22.8361C14.0588 23.1193 14.8688 23.0014 15.6803 22.6852C16.4918 22.3675 17.6663 21.1629 19.0373 18.7206C19.5578 17.5849 19.7948 16.9711 19.7468 16.8777Z" fill="black"/>
</svg>
