<svg width="27" height="27" viewBox="0 0 27 27" fill="none" xmlns="http://www.w3.org/2000/svg">
<path d="M23.6254 11.2967H22.7528V11.25H13.0028V15.75H19.1252C18.232 18.3696 15.8319 20.25 13.0028 20.25C9.41314 20.25 6.50277 17.2277 6.50277 13.5C6.50277 9.77231 9.41314 6.75 13.0028 6.75C14.6597 6.75 16.1672 7.39913 17.315 8.45944L20.3792 5.27738C18.4444 3.40481 15.8563 2.25 13.0028 2.25C7.02006 2.25 2.16943 7.28719 2.16943 13.5C2.16943 19.7128 7.02006 24.75 13.0028 24.75C18.9855 24.75 23.8361 19.7128 23.8361 13.5C23.8361 12.7457 23.7614 12.0094 23.6254 11.2967Z" fill="#FFC107"/>
<path d="M3.41895 8.26369L6.97824 10.9744C7.94132 8.49825 10.2737 6.75 13.0032 6.75C14.6602 6.75 16.1676 7.39912 17.3154 8.45944L20.3796 5.27737C18.4448 3.40481 15.8567 2.25 13.0032 2.25C8.84211 2.25 5.23353 4.68956 3.41895 8.26369Z" fill="#FF3D00"/>
<path d="M13.0028 24.75C15.801 24.75 18.3436 23.6379 20.266 21.8295L16.9131 18.8831C15.7889 19.771 14.4151 20.2512 13.0028 20.25C10.185 20.25 7.79248 18.3842 6.89115 15.7804L3.3584 18.6069C5.15131 22.2502 8.7924 24.75 13.0028 24.75Z" fill="#4CAF50"/>
<path d="M23.6256 11.2967H22.7529V11.25H13.0029V15.75H19.1254C18.6981 16.9967 17.9285 18.0862 16.9116 18.8837L16.9132 18.8826L20.2661 21.8289C20.0289 22.0528 23.8363 19.125 23.8363 13.5C23.8363 12.7457 23.7615 12.0094 23.6256 11.2967Z" fill="#1976D2"/>
</svg>
