<svg width="206" height="56" viewBox="0 0 206 56" fill="none" xmlns="http://www.w3.org/2000/svg">
<g clip-path="url(#clip0_1_6)">
<path d="M56.5667 24.7081C47.9671 19.4685 33.7789 18.9849 25.5671 21.542C25.0927 21.6884 24.585 21.6877 24.111 21.5399C23.6371 21.3921 23.219 21.1041 22.9119 20.714C22.5985 20.3203 22.4061 19.8442 22.3579 19.3434C22.3097 18.8425 22.4079 18.3385 22.6405 17.8923C22.9507 17.2947 23.4845 16.843 24.1186 16.6423C33.5439 13.7066 49.2103 14.2745 59.1146 20.3034C59.4692 20.5241 59.7653 20.8272 59.9778 21.1869C60.1902 21.5466 60.3127 21.9522 60.3349 22.3693C60.3571 22.7865 60.2783 23.2028 60.1051 23.583C59.932 23.9631 59.6697 24.2959 59.3404 24.553C59.0794 24.7537 58.7809 24.9001 58.4623 24.9835C58.1438 25.067 57.8118 25.0858 57.4859 25.0389C57.162 24.9932 56.8472 24.8792 56.5667 24.7081ZM56.2838 32.4683C56.1434 32.7047 55.9577 32.911 55.7373 33.0754C55.5169 33.2398 55.2662 33.3591 54.9996 33.4263C54.7335 33.4916 54.457 33.5027 54.1866 33.4588C53.9162 33.4149 53.6574 33.317 53.4257 33.1708C46.254 28.6475 35.3209 27.3382 26.8353 29.9819C26.4396 30.1042 26.016 30.1036 25.6206 29.9802C25.2252 29.8568 24.8765 29.6164 24.6204 29.2908C24.3606 28.9624 24.2013 28.5659 24.1616 28.149C24.122 27.7322 24.2037 27.3127 24.3969 26.9413C24.6535 26.4441 25.0963 26.0685 25.6287 25.8965C35.3186 22.8787 47.3672 24.3409 55.6018 29.5348C56.074 29.8396 56.4093 30.3159 56.537 30.8632C56.6646 31.4105 56.5747 31.986 56.2861 32.4683H56.2838ZM53.0219 39.9205C52.9103 40.1105 52.7622 40.2765 52.586 40.4089C52.4098 40.5412 52.209 40.6373 51.9954 40.6915C51.7824 40.7447 51.5607 40.7541 51.3439 40.7192C51.1271 40.6843 50.9196 40.6058 50.734 40.4885C44.4657 36.5605 36.5823 35.6732 27.2938 37.8516C26.9707 37.9267 26.6324 37.902 26.3236 37.7806C26.0149 37.6592 25.7502 37.4469 25.5648 37.1718C25.4388 36.9894 25.3496 36.784 25.3025 36.5673C25.2023 36.1283 25.2776 35.6674 25.5123 35.2831C25.6275 35.0941 25.7789 34.9297 25.9578 34.7993C26.1367 34.669 26.3396 34.5753 26.5548 34.5235C36.7169 32.1398 45.4351 33.1663 52.4699 37.5756C52.8466 37.8198 53.1143 38.2003 53.2167 38.6374C53.3192 39.0745 53.2486 39.5343 53.0196 39.9205H53.0219ZM40.7817 0.439919C26.0484 0.439919 14.1025 12.696 14.1025 27.8126C14.1025 42.9315 26.0461 55.1853 40.784 55.1853C55.5197 55.1853 67.4679 42.9315 67.4679 27.8126C67.4679 12.696 55.5197 0.439919 40.7817 0.439919H40.784H40.7817ZM86.6903 25.7095C82.0849 24.5826 81.2637 23.7934 81.2637 22.1282C81.2637 20.5589 82.7076 19.5027 84.8495 19.5027C86.9253 19.5027 88.9874 20.3057 91.1452 21.9571C91.1774 21.9815 91.2142 21.9992 91.2534 22.009C91.2925 22.0188 91.3333 22.0205 91.3732 22.0141C91.413 22.0077 91.4512 21.9933 91.4853 21.9718C91.5195 21.9502 91.5489 21.922 91.5718 21.8887L93.8232 18.6359C93.8678 18.5711 93.8866 18.4919 93.8761 18.4139C93.8655 18.3359 93.8264 18.2646 93.7662 18.2139C91.1954 16.0971 88.3008 15.0706 84.9157 15.0706C79.943 15.0706 76.4689 18.1318 76.4689 22.5137C76.4689 27.2127 79.4685 28.8733 84.6465 30.1598C89.0535 31.2023 89.7971 32.0759 89.7971 33.6362C89.7971 35.3629 88.2939 36.4396 85.8737 36.4396C83.1821 36.4396 80.99 35.5089 78.5378 33.3282C78.5077 33.3015 78.4725 33.2811 78.4343 33.2684C78.3961 33.2557 78.3557 33.2509 78.3156 33.2543C78.2754 33.2577 78.2364 33.2693 78.2009 33.2882C78.1654 33.3072 78.1341 33.3333 78.109 33.3647L75.5861 36.4442C75.5353 36.5059 75.51 36.5847 75.5155 36.6645C75.521 36.7443 75.5569 36.8189 75.6158 36.873C78.4717 39.4894 81.9799 40.8694 85.7688 40.8694C91.1293 40.8694 94.5942 37.8653 94.5942 33.2142C94.5942 29.2839 92.3063 27.1101 86.6903 25.7095ZM110.612 30.9787C110.612 34.2954 108.618 36.613 105.765 36.613C102.947 36.613 100.817 34.1927 100.817 30.9787C100.817 27.7624 102.945 25.3445 105.767 25.3445C108.573 25.3445 110.612 27.7123 110.612 30.9787ZM106.72 21.047C104.398 21.047 102.491 21.9868 100.92 23.912V21.745C100.92 21.6642 100.889 21.5865 100.833 21.5283C100.805 21.4999 100.772 21.4772 100.736 21.4615C100.7 21.4459 100.66 21.4376 100.621 21.4371H96.4921C96.4524 21.4374 96.4132 21.4457 96.3768 21.4614C96.3404 21.477 96.3074 21.4998 96.2799 21.5283C96.2225 21.5867 96.1905 21.6654 96.1909 21.7473V45.8033C96.1909 45.9767 96.3278 46.1158 96.4943 46.1158H100.621C100.661 46.115 100.7 46.1064 100.736 46.0903C100.773 46.0743 100.805 46.0512 100.833 46.0223C100.889 45.9636 100.921 45.8849 100.92 45.8033V38.2097C102.494 40.0209 104.398 40.9013 106.72 40.9013C111.038 40.9013 115.407 37.4934 115.407 30.9787C115.407 24.4595 111.038 21.047 106.72 21.047ZM126.611 36.6472C123.653 36.6472 121.424 34.211 121.424 30.9765C121.424 27.7328 123.575 25.3765 126.543 25.3765C129.52 25.3765 131.762 27.8149 131.762 31.0494C131.762 34.2931 129.597 36.6472 126.611 36.6472ZM126.611 21.0493C121.05 21.0493 116.695 25.4426 116.695 31.0472C116.695 36.5947 121.02 40.9424 126.543 40.9424C132.12 40.9424 136.488 36.5628 136.488 30.9765C136.488 25.4107 132.152 21.047 126.611 21.047V21.0493ZM148.361 21.4371H143.822V16.6742C143.823 16.6137 143.806 16.5543 143.773 16.5032C143.741 16.4522 143.694 16.4117 143.639 16.3868C143.602 16.3711 143.561 16.3634 143.521 16.364H139.394C139.314 16.3653 139.238 16.398 139.182 16.4552C139.126 16.5134 139.095 16.5912 139.095 16.6719V21.4325H137.111C137.05 21.4328 136.991 21.4515 136.942 21.4861C136.892 21.5208 136.854 21.5697 136.833 21.6264C136.817 21.6641 136.81 21.7044 136.81 21.745V25.3833C136.81 25.5521 136.947 25.6912 137.111 25.6912H139.095V35.1029C139.095 38.9054 140.941 40.8352 144.579 40.8352C146.057 40.8352 147.284 40.5204 148.443 39.8452C148.49 39.818 148.528 39.7791 148.555 39.7322C148.582 39.6854 148.596 39.6323 148.596 39.5783V36.1157C148.596 36.0634 148.583 36.012 148.558 35.9662C148.532 35.9204 148.496 35.8816 148.452 35.8534C148.409 35.8256 148.359 35.8098 148.307 35.8074C148.255 35.805 148.204 35.8161 148.158 35.8397C147.362 36.2503 146.596 36.4396 145.738 36.4396C144.415 36.4396 143.822 35.8214 143.822 34.4414V25.6912H148.361C148.401 25.6913 148.441 25.6832 148.478 25.6676C148.514 25.6519 148.548 25.6289 148.575 25.6C148.633 25.5416 148.665 25.4629 148.664 25.381V21.7427C148.665 21.6609 148.633 21.5823 148.575 21.5237C148.548 21.4951 148.514 21.4722 148.477 21.4565C148.441 21.4409 148.401 21.4327 148.361 21.4325V21.4348V21.4371ZM164.178 21.453V20.8714C164.178 19.1492 164.819 18.3804 166.263 18.3804C167.12 18.3804 167.814 18.5561 168.587 18.823C168.632 18.8375 168.68 18.8409 168.727 18.833C168.774 18.825 168.818 18.806 168.856 18.7774C168.896 18.7487 168.928 18.711 168.951 18.6673C168.973 18.6237 168.984 18.5754 168.984 18.5264V14.9589C168.984 14.8925 168.964 14.8278 168.925 14.7741C168.887 14.7202 168.832 14.6802 168.77 14.66C167.661 14.314 166.505 14.1447 165.344 14.1582C161.534 14.1582 159.518 16.3594 159.518 20.5178V21.4143H157.533C157.494 21.4148 157.454 21.4231 157.418 21.4387C157.382 21.4544 157.349 21.4771 157.321 21.5055C157.264 21.5643 157.233 21.6429 157.234 21.7245V25.381C157.234 25.5521 157.369 25.6912 157.535 25.6912H159.52V40.2079C159.52 40.379 159.652 40.5158 159.819 40.5158H163.945C164.109 40.5158 164.244 40.379 164.244 40.2079V25.6912H168.099L173.998 40.2033C173.327 41.7294 172.668 42.0327 171.769 42.0327C171.042 42.0327 170.277 41.8092 169.493 41.3712C169.457 41.3513 169.417 41.339 169.375 41.3351C169.334 41.3312 169.293 41.3357 169.253 41.3484C169.214 41.3624 169.178 41.3841 169.147 41.4123C169.117 41.4406 169.092 41.4747 169.075 41.5127L167.679 44.6605C167.647 44.7311 167.643 44.811 167.666 44.8847C167.69 44.9585 167.74 45.0208 167.807 45.0597C169.144 45.8392 170.667 46.2398 172.214 46.2185C175.257 46.2185 176.943 44.7632 178.428 40.8466L185.583 21.875C185.601 21.828 185.607 21.7774 185.602 21.7275C185.596 21.6776 185.579 21.6296 185.551 21.5876C185.525 21.5463 185.488 21.5122 185.445 21.4883C185.402 21.4644 185.354 21.4515 185.305 21.4508H181.01C180.946 21.4507 180.883 21.4709 180.832 21.5087C180.78 21.5464 180.742 21.5996 180.722 21.6606L176.325 34.5509L171.509 21.6538C171.488 21.5954 171.45 21.5449 171.399 21.509C171.349 21.4731 171.288 21.4536 171.226 21.453H164.178V21.4553V21.453ZM155.008 21.4348H150.882C150.842 21.4356 150.803 21.4443 150.766 21.4603C150.73 21.4764 150.697 21.4995 150.669 21.5283C150.613 21.5871 150.582 21.6657 150.583 21.7473V40.2102C150.583 40.3813 150.72 40.5181 150.884 40.5181H155.01C155.175 40.5181 155.309 40.3813 155.309 40.2102V21.745C155.31 21.6635 155.279 21.5848 155.222 21.526C155.195 21.4974 155.161 21.4747 155.124 21.459C155.088 21.4433 155.048 21.4351 155.008 21.4348ZM152.964 13.0291C152.573 13.0322 152.186 13.113 151.826 13.2669C151.466 13.4208 151.141 13.6447 150.868 13.9255C150.314 14.4958 150.003 15.2622 150.008 16.0629C150.005 16.8609 150.313 17.6287 150.868 18.2025C151.141 18.4827 151.468 18.7062 151.828 18.86C152.188 19.0138 152.575 19.0951 152.967 19.099C153.756 19.0944 154.511 18.7728 155.065 18.2025C155.619 17.6323 155.93 16.8635 155.925 16.0629C155.925 14.3863 154.6 13.0291 152.969 13.0291H152.964ZM189.274 23.271H188.519V24.261H189.274C189.65 24.261 189.876 24.0717 189.876 23.7683C189.876 23.4444 189.65 23.2733 189.274 23.2733V23.271ZM189.765 24.683L190.586 25.8623H189.892L189.156 24.7811H188.519V25.8623H187.94V22.7373H189.297C190.004 22.7373 190.472 23.1091 190.472 23.7318C190.481 23.9475 190.416 24.1597 190.287 24.3329C190.158 24.5062 189.974 24.6298 189.765 24.683ZM189.121 21.6948C187.634 21.6948 186.507 22.9083 186.507 24.3933C186.507 25.876 187.625 27.0736 189.105 27.0736C190.593 27.0736 191.722 25.86 191.722 24.3751C191.722 22.8924 190.599 21.6971 189.121 21.6971V21.6948ZM189.105 27.3701C188.72 27.3697 188.34 27.292 187.985 27.1415C187.631 26.991 187.311 26.7709 187.043 26.4942C186.497 25.9335 186.195 25.1787 186.204 24.3956C186.204 22.7601 187.488 21.3983 189.121 21.3983C189.506 21.399 189.886 21.4769 190.24 21.6273C190.594 21.7778 190.914 21.9978 191.181 22.2742C191.453 22.5519 191.667 22.8803 191.811 23.2408C191.956 23.6013 192.027 23.9868 192.023 24.3751C192.023 26.0106 190.739 27.3724 189.105 27.3724V27.3701Z" fill="black"/>
</g>
<defs>
<clipPath id="clip0_1_6">
<rect width="205.795" height="54.7454" fill="white" transform="translate(0.102478 0.439919)"/>
</clipPath>
</defs>
</svg>
